<svg xmlns="http://www.w3.org/2000/svg" fill="#3b7eb0" viewBox="0 0 64 64">
  <path d="M0 0h64v64H0z"/>
  <path fill="#fff" d="M18 14h28v36H18Z"/>
  <path d="M22 42h8v4h-8zm0-24h14v2H22zm0 14h2v2h-2zm0 4h2v2h-2z"/>
  <path opacity=".5" d="M32 42h8v4h-8zm-6-10h16v2H26zm0 4h16v2H26zm-4-14h20v8H22z"/>
  <path fill="#000" d="M20.81 9.86c0-.45-.17-.88-.49-1.2a1.74 1.74 0 0 0-1.2-2.1 1.75 1.75 0 0 0-2.1-1.2 1.74 1.74 0 0 0-2.42 0 1.75 1.75 0 0 0-2.09 1.2 1.74 1.74 0 0 0-1.2 2.1 1.74 1.74 0 0 0 0 2.41 1.74 1.74 0 0 0 1.2 2.1 1.71 1.71 0 0 0 .45.72v4.55l2.96-.96 2.75.96v-4.55c.2-.2.37-.44.45-.72a1.74 1.74 0 0 0 1.2-2.1c.32-.32.5-.75.5-1.2zm-4.58 6.72-.3-.1-.3.1-1.72.55v-2.75c.09.02.17.05.27.05a2 2 0 0 0 .42-.05 1.74 1.74 0 0 0 2.42 0c.14.03.28.05.43.05.1 0 .18-.03.27-.05v2.72zm3.43-6.06a.78.78 0 0 0-.22.82.78.78 0 0 1-.58 1 .78.78 0 0 0-.6.6.78.78 0 0 1-1 .58.78.78 0 0 0-.82.22.78.78 0 0 1-1.15 0 .78.78 0 0 0-.82-.22.78.78 0 0 1-1-.58.78.78 0 0 0-.6-.6.78.78 0 0 1-.58-1 .78.78 0 0 0-.22-.82.78.78 0 0 1 0-1.15.78.78 0 0 0 .22-.82.78.78 0 0 1 .58-1 .78.78 0 0 0 .6-.6.78.78 0 0 1 1-.58.78.78 0 0 0 .82-.22.78.78 0 0 1 1.15 0 .78.78 0 0 0 .82.22.78.78 0 0 1 1 .58.78.78 0 0 0 .6.6.78.78 0 0 1 .58 1 .78.78 0 0 0 .22.81.78.78 0 0 1 0 1.16z"/>
  <circle fill="#000" cx="15.81" cy="9.86" r="1.91"/>
</svg>